<svg id="visual" viewBox="0 0 900 600" width="900" height="600" xmlns="http://www.w3.org/2000/svg" xmlns:xlink="http://www.w3.org/1999/xlink" version="1.1"><rect x="0" y="0" width="900" height="600" fill="#0077b6"></rect><defs><linearGradient id="grad1_0" x1="33.3%" y1="100%" x2="100%" y2="0%"><stop offset="20%" stop-color="#0077b6" stop-opacity="1"></stop><stop offset="80%" stop-color="#0077b6" stop-opacity="1"></stop></linearGradient></defs><defs><linearGradient id="grad2_0" x1="0%" y1="100%" x2="66.7%" y2="0%"><stop offset="20%" stop-color="#0077b6" stop-opacity="1"></stop><stop offset="80%" stop-color="#0077b6" stop-opacity="1"></stop></linearGradient></defs><g transform="translate(900, 600)"><path d="M-486.7 0C-486.2 -69.8 -485.7 -139.5 -449.7 -186.3C-413.7 -233 -342.3 -256.8 -292.7 -292.7C-243.2 -328.7 -215.4 -376.8 -170.3 -411.1C-125.1 -445.5 -62.6 -466.1 0 -486.7L0 0Z" fill="#00b4d8"></path></g><g transform="translate(0, 0)"><path d="M486.7 0C485.4 68.7 484 137.4 449.7 186.3C415.4 235.1 348.2 264.1 297.7 297.7C247.2 331.3 213.3 369.6 166.5 401.9C119.6 434.2 59.8 460.5 0 486.7L0 0Z" fill="#00b4d8"></path></g></svg>